<svg width="48" height="48" viewBox="0 0 48 48" fill="none" xmlns="http://www.w3.org/2000/svg">
  <!-- Fondo sólido cuadrado (legible en Google, sin transparencia) -->
  <rect width="48" height="48" rx="11" fill="#0f172a"/>
  <!-- Cabeza/IA rellena en naranja de marca -->
  <path d="M24 8c-8.8 0-15.5 6.6-15.5 15 0 4.2 2 7.9 4.5 10.4V40c0 2 1.3 3.2 3.2 3.2h15.6c1.9 0 3.2-1.2 3.2-3.2v-6.6c2.5-2.5 4.5-6.2 4.5-10.4C39.5 14.6 32.8 8 24 8Z" fill="#FF6B35"/>
  <!-- Nodos de circuito (huecos oscuros para dar textura de IA) -->
  <circle cx="18.5" cy="22" r="2.7" fill="#0f172a"/>
  <circle cx="29.5" cy="22" r="2.7" fill="#0f172a"/>
  <circle cx="24" cy="30" r="2.7" fill="#0f172a"/>
  <path d="M18.5 22L24 30M29.5 22L24 30M24 22.5V27" stroke="#0f172a" stroke-width="1.9" stroke-linecap="round"/>
</svg>
